<svg width="200" height="200" viewBox="0 0 200 200" fill="none" xmlns="http://www.w3.org/2000/svg">
<g clip-path="url(#clip0_25_2)">
<path d="M182.203 130.651L180.701 133.188C167.56 155.386 143.679 169 117.883 169H104C99.5817 169 96 165.418 96 161V38.1032C96 31.8906 89.2274 28.0488 83.895 31.2367L26.386 65.6171C7.21859 77.0758 15.3433 106.5 37.6747 106.5H168.434C180.829 106.5 188.517 119.985 182.203 130.651Z" stroke="#1976D2" stroke-width="20"/>
<path d="M34 106.5C34 115.337 41.1634 122.5 50 122.5C58.8366 122.5 66 115.337 66 106.5C66 97.6634 58.8366 90.5 50 90.5C41.1634 90.5 34 97.6634 34 106.5ZM125 106.5C125 115.337 132.163 122.5 141 122.5C149.837 122.5 157 115.337 157 106.5C157 97.6634 149.837 90.5 141 90.5C132.163 90.5 125 97.6634 125 106.5ZM50 106.5V109.5L141 109.5V106.5V103.5L50 103.5V106.5Z" fill="#4CAF50"/>
<path d="M96.5 154.5C105.337 154.5 112.5 147.337 112.5 138.5C112.5 129.663 105.337 122.5 96.5 122.5C87.6634 122.5 80.5 129.663 80.5 138.5C80.5 147.337 87.6634 154.5 96.5 154.5ZM96.5 89.5C105.337 89.5 112.5 82.3366 112.5 73.5C112.5 64.6634 105.337 57.5 96.5 57.5C87.6634 57.5 80.5 64.6634 80.5 73.5C80.5 82.3366 87.6634 89.5 96.5 89.5ZM96.5 138.5L99.5 138.5L99.5 73.5L96.5 73.5L93.5 73.5L93.5 138.5L96.5 138.5Z" fill="#D32F2F"/>
</g>
<defs>
<clipPath id="clip0_25_2">
<rect width="200" height="200" fill="white"/>
</clipPath>
</defs>
</svg>
